<svg xmlns="http://www.w3.org/2000/svg" width="47.43" height="48.001" viewBox="0 0 47.43 48.001">
  <g>
    <g>
      <g>
        <path d="M23.864,0c-.313,2.206-.778,3.175-2.3,4.143C19.686,5.33,20.05,8.894,24.31,8.894c2.834,0,3.689-1.591,3.378-3.519C27.257,2.69,23.864,0,23.864,0Z" fill="#ffbd66"/>
        <path d="M11.265,0c-.313,2.206-.778,3.175-2.3,4.143C7.087,5.33,7.452,8.894,11.711,8.894c2.834,0,3.689-1.591,3.378-3.519C14.657,2.69,11.265,0,11.265,0Z" fill="#ffbd66"/>
        <path d="M40.288,5.375C39.856,2.689,36.463,0,36.463,0c-.313,2.206-.778,3.175-2.3,4.143C32.285,5.33,32.65,8.894,36.909,8.894,39.744,8.894,40.6,7.3,40.288,5.375Z" fill="#ffbd66"/>
      </g>
      <g>
        <path d="M24.117,6.173a.74.74,0,0,0-.741.741V10.78a.741.741,0,0,0,1.482,0V6.914A.741.741,0,0,0,24.117,6.173Z" fill="#7a8e9b"/>
        <path d="M11.517,6.173a.741.741,0,0,0-.741.741V10.78a.741.741,0,1,0,1.482,0V6.914A.74.74,0,0,0,11.517,6.173Z" fill="#7a8e9b"/>
        <path d="M36.716,6.173a.74.74,0,0,0-.741.741V10.78a.741.741,0,0,0,1.482,0V6.914A.739.739,0,0,0,36.716,6.173Z" fill="#7a8e9b"/>
      </g>
      <g>
        <rect x="20.965" y="10.782" width="6.304" height="10.397" fill="#e2e2e2"/>
        <rect x="8.366" y="10.782" width="6.303" height="10.397" fill="#e2e2e2"/>
        <rect x="33.564" y="10.782" width="6.304" height="10.397" fill="#e2e2e2"/>
      </g>
    </g>
    <path d="M1.483,30.07V45.917A2.084,2.084,0,0,0,3.567,48h40.3a2.084,2.084,0,0,0,2.084-2.084V30.07Z" fill="#f1bb6b"/>
    <path d="M42.288,28.125a3.749,3.749,0,0,1-5.306,0,3.752,3.752,0,0,0-5.307,0,3.75,3.75,0,0,1-5.307,0,3.75,3.75,0,0,0-5.306,0,3.75,3.75,0,0,1-5.307,0,3.752,3.752,0,0,0-5.307,0,3.75,3.75,0,0,1-5.307,0A3.741,3.741,0,0,0,0,27.99V31.7a3.741,3.741,0,0,1,5.141.136,3.75,3.75,0,0,0,5.307,0,3.752,3.752,0,0,1,5.307,0,3.75,3.75,0,0,0,5.307,0,3.75,3.75,0,0,1,5.306,0,3.75,3.75,0,0,0,5.307,0,3.752,3.752,0,0,1,5.307,0,3.749,3.749,0,0,0,5.306,0,3.741,3.741,0,0,1,5.141-.136V27.989A3.742,3.742,0,0,0,42.288,28.125Z" fill="#525c6b"/>
    <path d="M42.241,21.179H5.189A5.2,5.2,0,0,0,0,26.367V27.99a3.741,3.741,0,0,1,5.141.135,3.75,3.75,0,0,0,5.307,0,3.752,3.752,0,0,1,5.307,0,3.75,3.75,0,0,0,5.307,0,3.75,3.75,0,0,1,5.306,0,3.75,3.75,0,0,0,5.307,0,3.752,3.752,0,0,1,5.307,0,3.749,3.749,0,0,0,5.306,0,3.742,3.742,0,0,1,5.141-.136V26.367A5.205,5.205,0,0,0,42.241,21.179Z" fill="#7a8e9b"/>
    <rect x="1.483" y="36.618" width="44.464" height="1.853" fill="#525c6b"/>
    <rect x="1.483" y="41.806" width="44.464" height="1.853" fill="#525c6b"/>
  </g>
</svg>
