<svg
	version="1.0"
	xmlns="http://www.w3.org/2000/svg"
	width="3.25rem"
	height="3.25rem"
	viewBox="0 0 225 225"
	preserveAspectRatio="xMidYMid meet">
	<g
		transform="translate(0.000000,225.000000) scale(0.100000,-0.100000)"
		fill="#4ADE80"
		stroke="#4ADE80">
		<path
			d="M1015 1908 c-148 -38 -276 -75 -282 -80 -25 -20 -15 -55 22 -77 49 -29 75 -75 75 -136 0 -76 -7 -88 -65 -123 -30 -18 -91 -60 -136 -95 -45 -34 -90 -68 -99 -75 -14 -10 -21 -6 -49 37 -69 108 -194 186 -313 198 -58 5 -68 3 -87 -16 -30 -30 -26 -60 19 -144 91 -168 104 -268 55 -415 -16 -46 -43 -109 -62 -140 -46 -75 -51 -104 -24 -131 43 -43 197 -18 302 50 54 35 117 106 138 157 l13 31 61 -48 c139 -109 245 -168 397 -222 96 -34 105 -39 112 -67 5 -20 3 -58 -7 -104 -19 -94 -19 -104 5 -128 17 -17 33 -20 120 -20 83 0 108 4 143 21 107 54 170 120 206 214 l18 47 94 25 c117 30 255 96 334 160 61 50 144 145 173 198 26 50 20 114 -18 181 -99 177 -235 299 -420 377 -36 16 -71 31 -78 35 -8 4 -22 31 -32 60 -55 156 -188 283 -312 297 -20 2 -143 -25 -303 -67z m353 -44 c28 -14 70 -46 91 -71 39 -44 88 -130 79 -139 -3 -2 -60 1 -126 8 -170 17 -306 -5 -474 -77 -16 -6 -18 -1 -18 36 -1 50 -21 112 -44 138 -15 17 -5 21 201 74 120 30 223 56 229 56 5 1 33 -11 62 -25z m167 -308 c237 -52 399 -162 524 -356 23 -35 44 -74 47 -87 13 -51 -132 -215 -249 -282 -139 -79 -304 -115 -532 -115 -157 0 -177 2 -260 28 -157 48 -333 147 -479 271 -38 32 -74 55 -84 53 -10 -2 -32 -34 -53 -76 -58 -117 -145 -189 -252 -208 l-39 -7 35 69 c98 195 103 353 16 532 -18 37 -35 71 -37 76 -3 4 6 5 19 1 90 -26 188 -103 254 -200 49 -70 66 -71 142 -4 170 150 372 263 553 310 89 23 280 21 395 -5z m-62 -947 c-8 -31 -71 -96 -123 -128 -43 -27 -60 -31 -119 -31 l-70 0 10 32 c5 18 9 58 9 88 l0 55 149 0 c136 1 148 0 144 -16z" />
		<path
			d="M1649 1231 c-20 -20 -29 -39 -29 -61 0 -43 47 -90 90 -90 43 0 90 47 90 90 0 22 -9 41 -29 61 -40 39 -82 39 -122 0z" />
	</g>
</svg>